<svg id="Layer_1" data-name="Layer 1" xmlns="http://www.w3.org/2000/svg" viewBox="0 0 648.6 127.3"><defs><style>.cls-1{fill:#fff;}</style></defs><path class="cls-1" d="M17.66.81,0,126.49H367.12L384.78.81ZM66.43,93.37c-12.82,0-19.91-6.53-21.11-15.91L57,74.54c.57,4.79,3.6,7.38,9.4,7.38,4.72,0,7.56-1.86,7.56-5.87,0-2.27-1.34-3.75-3.44-4.88-4.89-2.64-13.92-3.36-20-7.52A13.52,13.52,0,0,1,46.69,60a15,15,0,0,1-2.38-8.69c0-10.21,7.86-17.32,20-17.32,13,0,20.12,6.72,21.16,16.33l-11.7,2.92c-.45-5.06-3.49-7.8-9.46-7.8-4.72,0-7.56,1.85-7.56,5.86,0,2.47,1.58,4,4,5.18,5,2.4,13.58,3.23,19.46,7.22a13.35,13.35,0,0,1,4.08,4.08,15.2,15.2,0,0,1,2.13,8.32C86.47,86.26,78.61,93.37,66.43,93.37Zm68.13-46.92h-14.7V92.34H108.21V46.45H93.51V35h41.05Zm52.75,23H157.88V80.87h29.43V92.34H146.26V57.94h41.05Zm52.72,0H210.6V80.87H240V92.34H199V57.94h41Zm0-22.94H146.26V35H240Zm51.73,0L266.87,80.86h24.89V92.33H251.67V80.86h0l24.89-34.41h-24.9V35h40.09Zm37.3,23.91v22H317.41V69.49L298.81,35h13.9l10.52,23,10.52-23h13.9Z"/><path class="cls-1" d="M627.85,119.78h-1.66l.29-2h5.44l-.29,2H630l-.93,6.64h-2.13Zm5.15-2h2.85l.49,5.65,2-5.65h2.86L640,126.42h-2l.77-5.5h0l-2.1,5.5H635l-.52-5.5h0l-.77,5.5h-1.9Z"/><path class="cls-1" d="M443.35,45.87h-17l3.95-28.16c.35-2.46-.59-3.71-2.81-3.73a3.46,3.46,0,0,0-3.82,3.34l-3.86,27.52a6.08,6.08,0,0,0,3.09,6.61l7.38,2.92q6,2.54,8.6,6.46t1.51,11.65l-5,35.55q-1.27,9-7.51,14.15T412,127.3q-10,0-14.69-4.44t-3.53-12.69l4.86-34.64h17l-4.75,33.74q-.54,3.83,2.94,3.82c2.31,0,3.64-1.18,4-3.56l4.69-33.36a6.44,6.44,0,0,0-3.66-7.2l-6.4-2.53q-6.42-2.26-8.9-6.58t-1.38-12.1l4.15-29.53a20.11,20.11,0,0,1,7.19-13.3Q419.5,0,429.68,0,439.42,0,444,4.48t3.45,12.39Z"/><path class="cls-1" d="M506.93.84h18.23L498.31,126.4H477.22L482.47,55a.53.53,0,0,0-.52-.59h0a.53.53,0,0,0-.52.45L466.84,126.4H445.29L454.05.84h18.36l-10,94.8a.67.67,0,0,0,1.33.2L481.3.84H498l-9.11,94.82a.68.68,0,0,0,1.34.18Z"/><path class="cls-1" d="M531.66,111.67h15.19l-2.07,14.73H512.46L530.11.84h32l-2.07,14.73H545.17l-5.45,38.8H553.8l-2,14.34H537.7Z"/><path class="cls-1" d="M648.6.84l-2.07,14.73H636L620.44,126.4H603.31L618.87,15.7H608.36L610.44.84Z"/><path class="cls-1" d="M576.83.84,549.9,126.4h17.52L573,95.32a14.51,14.51,0,0,0,4.43.78,10.3,10.3,0,0,0,4.22-.78l-3.33,31.08h17.24L604.21.84Zm8.26,77a5.86,5.86,0,0,1-5.78,5.42,5.69,5.69,0,0,1-5.46-5.93c0-3.88,13.3-58.44,13.3-58.44l.22-1.17h.06a.59.59,0,0,1,1.17.17S585.32,74.52,585.09,77.83Z"/><path class="cls-1" d="M576.58,80.2c4,2.86,8.14-.84,7.36-6.17C583.13,77,580.51,80.21,576.58,80.2Z"/></svg>