<svg id="Layer_1" data-name="Layer 1" xmlns="http://www.w3.org/2000/svg" viewBox="0 0 689.06 90.34"><defs><style>.cls-1{fill:#fff;}</style></defs><ellipse class="cls-1" cx="351.15" cy="45.17" rx="12" ry="10.76"/><polygon class="cls-1" points="471.06 36.03 465.17 49.55 477.31 49.55 471.4 36.03 471.06 36.03"/><path class="cls-1" d="M235.12,34.41c-8.15,0-12,4.08-12,10.76s3.85,10.76,12,10.76,12-4.08,12-10.76S243.27,34.41,235.12,34.41Z"/><path class="cls-1" d="M185,35.57H170.61v7.62H185c3.14,0,4.39-1.29,4.39-3.8S188.18,35.57,185,35.57Z"/><path class="cls-1" d="M419.37,35.44h-8.94V54.89h8.94c7.16,0,11-2.64,11-9.72S426.53,35.44,419.37,35.44Z"/><path class="cls-1" d="M679.66,0H9.4A9.4,9.4,0,0,0,0,9.4V80.94a9.4,9.4,0,0,0,9.4,9.4H679.66a9.4,9.4,0,0,0,9.4-9.4V9.4A9.4,9.4,0,0,0,679.66,0ZM50.59,64.91H37.87V25.43H50.59Zm52,0H88L69.39,40.62h-.33V64.91H57V25.43H72L90.17,49.21h.34V25.43h12.11Zm48.94-29.39H136.61V64.91H123.89V35.52H109V25.43h42.61Zm38.57,29.39-7.57-12.72H170.61V64.91H157.89V25.43H188c11.3,0,15.55,4.54,15.55,13,0,7.05-3.42,9.8-8.46,11.08v.46l9.49,15Zm45,1.3c-16,0-26-6.66-26-21s10-21,26-21,26,6.66,26,21S251.08,66.21,235.12,66.21Zm86.59-30.69H306.76V64.91H294V35.52H279.1V25.43h42.61Zm29.44,30.69c-16,0-26-6.66-26-21s10-21,26-21,26,6.66,26,21S367.1,66.21,351.15,66.21ZM422,64.91H397.71V25.43H422c14.58,0,22.39,5.35,22.39,19.74S436.55,64.91,422,64.91Zm62,0-2.7-6.19H461.18l-2.7,6.19H444.56L462.9,25.43h16.8l18.2,39.48Zm64.38,0H533.81L515.18,40.62h-.33V64.91H502.74V25.43h15L536,49.21h.33V25.43H548.4Zm31.43,1.3c-15.31,0-25.34-6.66-25.34-21s10-21,25.34-21,24.53,6.1,24.81,16.69h-15c-.18-2.64-2.33-6.41-9.83-6.41s-11.36,4.08-11.36,10.76,3.85,10.76,11.36,10.76,9.52-3.53,9.75-7.26h15.17C604.47,60.11,595.14,66.21,579.83,66.21Zm71.36-1.3H610.86V25.43h39.76v9.48h-27v5.56h25.89v8.74H623.58V55.5h27.61Z"/></svg>